<svg width="624" height="184" viewBox="0 0 624 184" fill="none" xmlns="http://www.w3.org/2000/svg">
<rect y="6" width="601" height="178" rx="28" fill="#1F1F1F"/>
<rect x="1" y="7" width="454" height="176" rx="27" stroke="#A624A9" stroke-opacity="0.8" stroke-width="2"/>
<rect x="7" y="13" width="442" height="164" rx="25" stroke="#A624A9" stroke-opacity="0.6" stroke-width="2"/>
<rect x="13" y="19" width="430" height="152" rx="23" stroke="#A624A9" stroke-opacity="0.4" stroke-width="2"/>
<rect x="19" y="25" width="417" height="140" rx="21" stroke="#A624A9" stroke-opacity="0.2" stroke-width="2"/>
<path d="M58 74H103L100 82H61L58 74Z" fill="#E5E5E5" fill-opacity="0.55"/>
<path d="M62 82H100L96.5 90H64.5L62 82Z" fill="#E5E5E5" fill-opacity="0.45"/>
<path d="M65 90H97L92.5 98H68L65 90Z" fill="#E5E5E5" fill-opacity="0.35"/>
<path d="M69 98H92L89.5 105H71.5L69 98Z" fill="#E5E5E5" fill-opacity="0.25"/>
<path d="M72 105H89L86 113H75.5L72 105Z" fill="#E5E5E5" fill-opacity="0.2"/>
<path d="M75 113H86L82.5 122H78.5L75 113Z" fill="#E5E5E5" fill-opacity="0.15"/>
<path d="M489.723 44.0078H488.797C487.672 44.0078 486.859 43.7031 486.359 43.0938C485.867 42.4922 485.621 41.3711 485.621 39.7305V38.6055C485.621 37.1445 485.43 36.1289 485.047 35.5586C484.664 34.9805 484.047 34.6914 483.195 34.6914V32.7812C484.047 32.7812 484.664 32.4961 485.047 31.9258C485.43 31.3477 485.621 30.3281 485.621 28.8672V27.7305C485.621 26.0977 485.867 24.9805 486.359 24.3789C486.859 23.7695 487.672 23.4648 488.797 23.4648H489.723V25H489.371C488.645 25 488.137 25.1562 487.848 25.4688C487.566 25.7812 487.426 26.5273 487.426 27.707V28.457C487.426 30.0742 487.238 31.2656 486.863 32.0312C486.488 32.7969 485.852 33.3633 484.953 33.7305C485.852 34.1055 486.488 34.6758 486.863 35.4414C487.238 36.207 487.426 37.3984 487.426 39.0156V39.7656C487.426 40.9453 487.566 41.6914 487.848 42.0039C488.137 42.3164 488.645 42.4727 489.371 42.4727H489.723V44.0078ZM505.648 40H503.832C503.684 39.5078 503.609 38.8516 503.609 38.0312C502.57 39.5547 501.156 40.3164 499.367 40.3164C498.461 40.3164 497.66 39.9961 496.965 39.3555C496.277 38.707 495.934 37.875 495.934 36.8594C495.934 36.2578 496.055 35.7266 496.297 35.2656C496.539 34.8047 496.895 34.418 497.363 34.1055C497.832 33.7852 498.402 33.5352 499.074 33.3555C499.746 33.168 500.543 33.0391 501.465 32.9688L503.516 32.8047V32.2188C503.516 30.125 502.539 29.0781 500.586 29.0781C500.125 29.0781 499.539 29.1797 498.828 29.3828C498.125 29.5781 497.52 29.8125 497.012 30.0859L496.531 28.7734C498.195 27.9219 499.742 27.4961 501.172 27.4961C503.953 27.4961 505.344 28.9688 505.344 31.9141V37.1641C505.344 38.2266 505.445 39.1719 505.648 40ZM503.516 36.3789V34.1641C501.867 34.3125 500.734 34.4531 500.117 34.5859C499.508 34.7109 498.977 34.9492 498.523 35.3008C498.078 35.6523 497.855 36.1289 497.855 36.7305C497.855 37.2773 498.047 37.7188 498.43 38.0547C498.812 38.3906 499.301 38.5586 499.895 38.5586C500.543 38.5586 501.188 38.3672 501.828 37.9844C502.469 37.5938 503.031 37.0586 503.516 36.3789ZM518.867 40H513.875V25.0469H510.688V23.4648H515.703V38.418H518.867V40ZM526.59 29.3711C526.996 28.8086 527.543 28.3555 528.23 28.0117C528.926 27.668 529.656 27.4961 530.422 27.4961C531.828 27.4961 532.93 28.0781 533.727 29.2422C534.531 30.3984 534.934 31.9062 534.934 33.7656C534.934 35.6406 534.512 37.2031 533.668 38.4531C532.832 39.6953 531.703 40.3164 530.281 40.3164C529.523 40.3164 528.812 40.1289 528.148 39.7539C527.492 39.3711 526.973 38.8672 526.59 38.2422V44.8281H524.762V27.7891H526.59V29.3711ZM526.59 31.1875V36.2617C526.934 36.9492 527.398 37.5234 527.984 37.9844C528.57 38.4453 529.176 38.6758 529.801 38.6758C530.785 38.6758 531.566 38.2148 532.145 37.293C532.73 36.3711 533.023 35.2266 533.023 33.8594C533.023 32.4531 532.746 31.3047 532.191 30.4141C531.637 29.5234 530.863 29.0781 529.871 29.0781C528.582 29.0781 527.488 29.7812 526.59 31.1875ZM548.586 40H546.758V32.1719C546.758 31.0859 546.582 30.3008 546.23 29.8164C545.887 29.3242 545.344 29.0781 544.602 29.0781C543.484 29.0781 542.285 29.7734 541.004 31.1641V40H539.176V23.4648H541.004V29.582C542.316 28.1914 543.699 27.4961 545.152 27.4961C547.441 27.4961 548.586 28.8789 548.586 31.6445V40ZM563.305 40H561.488C561.34 39.5078 561.266 38.8516 561.266 38.0312C560.227 39.5547 558.812 40.3164 557.023 40.3164C556.117 40.3164 555.316 39.9961 554.621 39.3555C553.934 38.707 553.59 37.875 553.59 36.8594C553.59 36.2578 553.711 35.7266 553.953 35.2656C554.195 34.8047 554.551 34.418 555.02 34.1055C555.488 33.7852 556.059 33.5352 556.73 33.3555C557.402 33.168 558.199 33.0391 559.121 32.9688L561.172 32.8047V32.2188C561.172 30.125 560.195 29.0781 558.242 29.0781C557.781 29.0781 557.195 29.1797 556.484 29.3828C555.781 29.5781 555.176 29.8125 554.668 30.0859L554.188 28.7734C555.852 27.9219 557.398 27.4961 558.828 27.4961C561.609 27.4961 563 28.9688 563 31.9141V37.1641C563 38.2266 563.102 39.1719 563.305 40ZM561.172 36.3789V34.1641C559.523 34.3125 558.391 34.4531 557.773 34.5859C557.164 34.7109 556.633 34.9492 556.18 35.3008C555.734 35.6523 555.512 36.1289 555.512 36.7305C555.512 37.2773 555.703 37.7188 556.086 38.0547C556.469 38.3906 556.957 38.5586 557.551 38.5586C558.199 38.5586 558.844 38.3672 559.484 37.9844C560.125 37.5938 560.688 37.0586 561.172 36.3789ZM575.633 34.6914C574.789 34.6914 574.172 34.9805 573.781 35.5586C573.398 36.1289 573.207 37.1445 573.207 38.6055V39.7305C573.207 41.3711 572.961 42.4922 572.469 43.0938C571.977 43.7031 571.168 44.0078 570.043 44.0078H569.105V42.4727H569.469C570.195 42.4727 570.699 42.3164 570.98 42.0039C571.27 41.6914 571.414 40.9453 571.414 39.7656V39.0156C571.414 37.3984 571.602 36.207 571.977 35.4414C572.352 34.6758 572.988 34.1055 573.887 33.7305C572.988 33.3633 572.352 32.7969 571.977 32.0312C571.602 31.2656 571.414 30.0742 571.414 28.457V27.707C571.414 26.5273 571.27 25.7812 570.98 25.4688C570.699 25.1562 570.195 25 569.469 25H569.105V23.4648H570.043C571.168 23.4648 571.977 23.7695 572.469 24.3789C572.961 24.9805 573.207 26.0977 573.207 27.7305V28.8672C573.207 30.1875 573.379 31.1719 573.723 31.8203C574.066 32.4609 574.703 32.7812 575.633 32.7812V34.6914Z" fill="#959595"/>
<path d="M78 118.195C78 122.1 81.5 123.195 80.5 127.628C79.1474 128.311 77.6186 128.695 76 128.695C70.4772 128.695 66 124.218 66 118.695C66 114.036 69.1869 110.121 73.5 109.01C74.299 108.805 74.6368 111.695 75.5 111.695C76 114.195 76.5 112.695 78 118.195Z" fill="#4B4B4B"/>
<g filter="url(#filter0_d_104_2)">
<path d="M54.36 71.24H106.84L80.6 128.12L54.36 71.24ZM80.6 121.08L102.28 74.2H59L80.6 121.08ZM120.619 71.32H159.819V74.28H123.579V96.84H155.099V99.8H123.579V124.04H159.819V127H120.619V71.32ZM200.238 100.36C195.704 99.4533 191.998 98.4667 189.118 97.4C186.291 96.28 184.051 94.7867 182.398 92.92C180.797 91 179.997 88.5467 179.997 85.56C179.997 82.4667 180.797 79.7467 182.398 77.4C184.051 75.0533 186.344 73.24 189.278 71.96C192.264 70.68 195.704 70.04 199.598 70.04C203.331 70.04 206.744 70.84 209.837 72.44C212.984 73.9867 215.464 76.1733 217.278 79C219.091 81.8267 219.998 85.0533 219.998 88.68H217.038C217.038 85.5333 216.264 82.76 214.718 80.36C213.171 77.96 211.064 76.12 208.398 74.84C205.731 73.5067 202.771 72.84 199.518 72.84C196.638 72.84 193.944 73.2933 191.438 74.2C188.931 75.1067 186.878 76.4933 185.278 78.36C183.731 80.2267 182.958 82.5733 182.958 85.4C182.958 87.96 183.704 90.0133 185.198 91.56C186.691 93.0533 188.638 94.2 191.038 95C193.438 95.8 196.798 96.6533 201.118 97.56C205.491 98.4667 208.878 99.3467 211.278 100.2C213.731 101 215.784 102.36 217.438 104.28C219.144 106.2 219.998 108.893 219.998 112.36C219.998 115.827 219.064 118.76 217.198 121.16C215.384 123.507 212.958 125.267 209.918 126.44C206.878 127.613 203.571 128.2 199.998 128.2C195.571 128.2 191.678 127.373 188.318 125.72C184.958 124.067 182.371 121.747 180.558 118.76C178.798 115.72 177.918 112.253 177.918 108.36H180.878C180.878 111.773 181.624 114.76 183.118 117.32C184.664 119.88 186.878 121.88 189.758 123.32C192.638 124.707 196.051 125.4 199.998 125.4C204.904 125.4 208.958 124.227 212.158 121.88C215.411 119.533 217.038 116.333 217.038 112.28C217.038 109.507 216.344 107.373 214.958 105.88C213.571 104.387 211.811 103.32 209.678 102.68C207.598 101.987 204.451 101.213 200.238 100.36ZM259.456 100.36C254.923 99.4533 251.216 98.4667 248.336 97.4C245.51 96.28 243.27 94.7867 241.616 92.92C240.016 91 239.216 88.5467 239.216 85.56C239.216 82.4667 240.016 79.7467 241.616 77.4C243.27 75.0533 245.563 73.24 248.496 71.96C251.483 70.68 254.923 70.04 258.816 70.04C262.55 70.04 265.963 70.84 269.056 72.44C272.203 73.9867 274.683 76.1733 276.496 79C278.31 81.8267 279.216 85.0533 279.216 88.68H276.256C276.256 85.5333 275.483 82.76 273.936 80.36C272.39 77.96 270.283 76.12 267.616 74.84C264.95 73.5067 261.99 72.84 258.736 72.84C255.856 72.84 253.163 73.2933 250.656 74.2C248.15 75.1067 246.096 76.4933 244.496 78.36C242.95 80.2267 242.176 82.5733 242.176 85.4C242.176 87.96 242.923 90.0133 244.416 91.56C245.91 93.0533 247.856 94.2 250.256 95C252.656 95.8 256.016 96.6533 260.336 97.56C264.71 98.4667 268.096 99.3467 270.496 100.2C272.95 101 275.003 102.36 276.656 104.28C278.363 106.2 279.216 108.893 279.216 112.36C279.216 115.827 278.283 118.76 276.416 121.16C274.603 123.507 272.176 125.267 269.136 126.44C266.096 127.613 262.79 128.2 259.216 128.2C254.79 128.2 250.896 127.373 247.536 125.72C244.176 124.067 241.59 121.747 239.776 118.76C238.016 115.72 237.136 112.253 237.136 108.36H240.096C240.096 111.773 240.843 114.76 242.336 117.32C243.883 119.88 246.096 121.88 248.976 123.32C251.856 124.707 255.27 125.4 259.216 125.4C264.123 125.4 268.176 124.227 271.376 121.88C274.63 119.533 276.256 116.333 276.256 112.28C276.256 109.507 275.563 107.373 274.176 105.88C272.79 104.387 271.03 103.32 268.896 102.68C266.816 101.987 263.67 101.213 259.456 100.36ZM298.275 71.32H337.475V74.28H301.235V96.84H332.755V99.8H301.235V124.04H337.475V127H298.275V71.32ZM359.494 127V71.32H362.454V124.04H401.254V127H359.494Z" fill="#E6E6E6"/>
</g>
<defs>
<filter id="filter0_d_104_2" x="52.36" y="69.04" width="350.894" height="62.16" filterUnits="userSpaceOnUse" color-interpolation-filters="sRGB">
<feFlood flood-opacity="0" result="BackgroundImageFix"/>
<feColorMatrix in="SourceAlpha" type="matrix" values="0 0 0 0 0 0 0 0 0 0 0 0 0 0 0 0 0 0 127 0" result="hardAlpha"/>
<feOffset dy="1"/>
<feGaussianBlur stdDeviation="1"/>
<feComposite in2="hardAlpha" operator="out"/>
<feColorMatrix type="matrix" values="0 0 0 0 0 0 0 0 0 0 0 0 0 0 0 0 0 0 0.25 0"/>
<feBlend mode="normal" in2="BackgroundImageFix" result="effect1_dropShadow_104_2"/>
<feBlend mode="normal" in="SourceGraphic" in2="effect1_dropShadow_104_2" result="shape"/>
</filter>
</defs>
</svg>
