<svg width="532" height="105" viewBox="0 0 532 105" fill="none" xmlns="http://www.w3.org/2000/svg">
<rect width="502" height="87" rx="28" fill="#1F1F1F"/>
<path d="M28 19H73L70 27H31L28 19Z" fill="#9C209E"/>
<path d="M32 27H70L66.5 35H34.5L32 27Z" fill="#88208A"/>
<path d="M35 35H67L62.5 43H38L35 35Z" fill="#6E206F"/>
<path d="M39 43H62L59.5 50H41.5L39 43Z" fill="#511C52"/>
<path d="M42 50H59L56 58H45.5L42 50Z" fill="#341A35"/>
<path d="M45 58H56L52.5 67H48.5L45 58Z" fill="#39203A"/>
<path d="M397.723 36.0078H396.797C395.672 36.0078 394.859 35.7031 394.359 35.0938C393.867 34.4922 393.621 33.3711 393.621 31.7305V30.6055C393.621 29.1445 393.43 28.1289 393.047 27.5586C392.664 26.9805 392.047 26.6914 391.195 26.6914V24.7812C392.047 24.7812 392.664 24.4961 393.047 23.9258C393.43 23.3477 393.621 22.3281 393.621 20.8672V19.7305C393.621 18.0977 393.867 16.9805 394.359 16.3789C394.859 15.7695 395.672 15.4648 396.797 15.4648H397.723V17H397.371C396.645 17 396.137 17.1562 395.848 17.4688C395.566 17.7812 395.426 18.5273 395.426 19.707V20.457C395.426 22.0742 395.238 23.2656 394.863 24.0312C394.488 24.7969 393.852 25.3633 392.953 25.7305C393.852 26.1055 394.488 26.6758 394.863 27.4414C395.238 28.207 395.426 29.3984 395.426 31.0156V31.7656C395.426 32.9453 395.566 33.6914 395.848 34.0039C396.137 34.3164 396.645 34.4727 397.371 34.4727H397.723V36.0078ZM413.648 32H411.832C411.684 31.5078 411.609 30.8516 411.609 30.0312C410.57 31.5547 409.156 32.3164 407.367 32.3164C406.461 32.3164 405.66 31.9961 404.965 31.3555C404.277 30.707 403.934 29.875 403.934 28.8594C403.934 28.2578 404.055 27.7266 404.297 27.2656C404.539 26.8047 404.895 26.418 405.363 26.1055C405.832 25.7852 406.402 25.5352 407.074 25.3555C407.746 25.168 408.543 25.0391 409.465 24.9688L411.516 24.8047V24.2188C411.516 22.125 410.539 21.0781 408.586 21.0781C408.125 21.0781 407.539 21.1797 406.828 21.3828C406.125 21.5781 405.52 21.8125 405.012 22.0859L404.531 20.7734C406.195 19.9219 407.742 19.4961 409.172 19.4961C411.953 19.4961 413.344 20.9688 413.344 23.9141V29.1641C413.344 30.2266 413.445 31.1719 413.648 32ZM411.516 28.3789V26.1641C409.867 26.3125 408.734 26.4531 408.117 26.5859C407.508 26.7109 406.977 26.9492 406.523 27.3008C406.078 27.6523 405.855 28.1289 405.855 28.7305C405.855 29.2773 406.047 29.7188 406.43 30.0547C406.812 30.3906 407.301 30.5586 407.895 30.5586C408.543 30.5586 409.188 30.3672 409.828 29.9844C410.469 29.5938 411.031 29.0586 411.516 28.3789ZM426.867 32H421.875V17.0469H418.688V15.4648H423.703V30.418H426.867V32ZM434.59 21.3711C434.996 20.8086 435.543 20.3555 436.23 20.0117C436.926 19.668 437.656 19.4961 438.422 19.4961C439.828 19.4961 440.93 20.0781 441.727 21.2422C442.531 22.3984 442.934 23.9062 442.934 25.7656C442.934 27.6406 442.512 29.2031 441.668 30.4531C440.832 31.6953 439.703 32.3164 438.281 32.3164C437.523 32.3164 436.812 32.1289 436.148 31.7539C435.492 31.3711 434.973 30.8672 434.59 30.2422V36.8281H432.762V19.7891H434.59V21.3711ZM434.59 23.1875V28.2617C434.934 28.9492 435.398 29.5234 435.984 29.9844C436.57 30.4453 437.176 30.6758 437.801 30.6758C438.785 30.6758 439.566 30.2148 440.145 29.293C440.73 28.3711 441.023 27.2266 441.023 25.8594C441.023 24.4531 440.746 23.3047 440.191 22.4141C439.637 21.5234 438.863 21.0781 437.871 21.0781C436.582 21.0781 435.488 21.7812 434.59 23.1875ZM456.586 32H454.758V24.1719C454.758 23.0859 454.582 22.3008 454.23 21.8164C453.887 21.3242 453.344 21.0781 452.602 21.0781C451.484 21.0781 450.285 21.7734 449.004 23.1641V32H447.176V15.4648H449.004V21.582C450.316 20.1914 451.699 19.4961 453.152 19.4961C455.441 19.4961 456.586 20.8789 456.586 23.6445V32ZM471.305 32H469.488C469.34 31.5078 469.266 30.8516 469.266 30.0312C468.227 31.5547 466.812 32.3164 465.023 32.3164C464.117 32.3164 463.316 31.9961 462.621 31.3555C461.934 30.707 461.59 29.875 461.59 28.8594C461.59 28.2578 461.711 27.7266 461.953 27.2656C462.195 26.8047 462.551 26.418 463.02 26.1055C463.488 25.7852 464.059 25.5352 464.73 25.3555C465.402 25.168 466.199 25.0391 467.121 24.9688L469.172 24.8047V24.2188C469.172 22.125 468.195 21.0781 466.242 21.0781C465.781 21.0781 465.195 21.1797 464.484 21.3828C463.781 21.5781 463.176 21.8125 462.668 22.0859L462.188 20.7734C463.852 19.9219 465.398 19.4961 466.828 19.4961C469.609 19.4961 471 20.9688 471 23.9141V29.1641C471 30.2266 471.102 31.1719 471.305 32ZM469.172 28.3789V26.1641C467.523 26.3125 466.391 26.4531 465.773 26.5859C465.164 26.7109 464.633 26.9492 464.18 27.3008C463.734 27.6523 463.512 28.1289 463.512 28.7305C463.512 29.2773 463.703 29.7188 464.086 30.0547C464.469 30.3906 464.957 30.5586 465.551 30.5586C466.199 30.5586 466.844 30.3672 467.484 29.9844C468.125 29.5938 468.688 29.0586 469.172 28.3789ZM483.633 26.6914C482.789 26.6914 482.172 26.9805 481.781 27.5586C481.398 28.1289 481.207 29.1445 481.207 30.6055V31.7305C481.207 33.3711 480.961 34.4922 480.469 35.0938C479.977 35.7031 479.168 36.0078 478.043 36.0078H477.105V34.4727H477.469C478.195 34.4727 478.699 34.3164 478.98 34.0039C479.27 33.6914 479.414 32.9453 479.414 31.7656V31.0156C479.414 29.3984 479.602 28.207 479.977 27.4414C480.352 26.6758 480.988 26.1055 481.887 25.7305C480.988 25.3633 480.352 24.7969 479.977 24.0312C479.602 23.2656 479.414 22.0742 479.414 20.457V19.707C479.414 18.5273 479.27 17.7812 478.98 17.4688C478.699 17.1562 478.195 17 477.469 17H477.105V15.4648H478.043C479.168 15.4648 479.977 15.7695 480.469 16.3789C480.961 16.9805 481.207 18.0977 481.207 19.7305V20.8672C481.207 22.1875 481.379 23.1719 481.723 23.8203C482.066 24.4609 482.703 24.7812 483.633 24.7812V26.6914Z" fill="#959595"/>
<path d="M48 63.5C48 67.4042 51.5 68.5 50.5 72.9327C49.1474 73.6154 47.6186 74 46 74C40.4772 74 36 69.5228 36 64C36 59.3404 39.1869 55.4251 43.5 54.315C44.299 54.1094 44.6368 57 45.5 57C46 59.5 46.5 58 48 63.5Z" fill="#6E206F"/>
<g filter="url(#filter0_d_104_3)">
<path d="M24.36 16.24H76.84L50.6 73.12L24.36 16.24ZM50.6 66.08L72.28 19.2H29L50.6 66.08ZM90.6188 16.32H129.819V19.28H93.5788V41.84H125.099V44.8H93.5788V69.04H129.819V72H90.6188V16.32ZM170.238 45.36C165.704 44.4533 161.998 43.4667 159.118 42.4C156.291 41.28 154.051 39.7867 152.398 37.92C150.797 36 149.997 33.5467 149.997 30.56C149.997 27.4667 150.797 24.7467 152.398 22.4C154.051 20.0533 156.344 18.24 159.278 16.96C162.264 15.68 165.704 15.04 169.598 15.04C173.331 15.04 176.744 15.84 179.837 17.44C182.984 18.9867 185.464 21.1733 187.278 24C189.091 26.8267 189.998 30.0533 189.998 33.68H187.038C187.038 30.5333 186.264 27.76 184.718 25.36C183.171 22.96 181.064 21.12 178.398 19.84C175.731 18.5067 172.771 17.84 169.518 17.84C166.638 17.84 163.944 18.2933 161.438 19.2C158.931 20.1067 156.878 21.4933 155.278 23.36C153.731 25.2267 152.958 27.5733 152.958 30.4C152.958 32.96 153.704 35.0133 155.198 36.56C156.691 38.0533 158.638 39.2 161.038 40C163.438 40.8 166.798 41.6533 171.118 42.56C175.491 43.4667 178.878 44.3467 181.278 45.2C183.731 46 185.784 47.36 187.438 49.28C189.144 51.2 189.998 53.8933 189.998 57.36C189.998 60.8267 189.064 63.76 187.198 66.16C185.384 68.5067 182.958 70.2667 179.918 71.44C176.878 72.6133 173.571 73.2 169.998 73.2C165.571 73.2 161.678 72.3733 158.318 70.72C154.958 69.0667 152.371 66.7467 150.558 63.76C148.798 60.72 147.918 57.2533 147.918 53.36H150.878C150.878 56.7733 151.624 59.76 153.118 62.32C154.664 64.88 156.878 66.88 159.758 68.32C162.638 69.7067 166.051 70.4 169.998 70.4C174.904 70.4 178.958 69.2267 182.158 66.88C185.411 64.5333 187.038 61.3333 187.038 57.28C187.038 54.5067 186.344 52.3733 184.958 50.88C183.571 49.3867 181.811 48.32 179.678 47.68C177.598 46.9867 174.451 46.2133 170.238 45.36ZM229.456 45.36C224.923 44.4533 221.216 43.4667 218.336 42.4C215.51 41.28 213.27 39.7867 211.616 37.92C210.016 36 209.216 33.5467 209.216 30.56C209.216 27.4667 210.016 24.7467 211.616 22.4C213.27 20.0533 215.563 18.24 218.496 16.96C221.483 15.68 224.923 15.04 228.816 15.04C232.55 15.04 235.963 15.84 239.056 17.44C242.203 18.9867 244.683 21.1733 246.496 24C248.31 26.8267 249.216 30.0533 249.216 33.68H246.256C246.256 30.5333 245.483 27.76 243.936 25.36C242.39 22.96 240.283 21.12 237.616 19.84C234.95 18.5067 231.99 17.84 228.736 17.84C225.856 17.84 223.163 18.2933 220.656 19.2C218.15 20.1067 216.096 21.4933 214.496 23.36C212.95 25.2267 212.176 27.5733 212.176 30.4C212.176 32.96 212.923 35.0133 214.416 36.56C215.91 38.0533 217.856 39.2 220.256 40C222.656 40.8 226.016 41.6533 230.336 42.56C234.71 43.4667 238.096 44.3467 240.496 45.2C242.95 46 245.003 47.36 246.656 49.28C248.363 51.2 249.216 53.8933 249.216 57.36C249.216 60.8267 248.283 63.76 246.416 66.16C244.603 68.5067 242.176 70.2667 239.136 71.44C236.096 72.6133 232.79 73.2 229.216 73.2C224.79 73.2 220.896 72.3733 217.536 70.72C214.176 69.0667 211.59 66.7467 209.776 63.76C208.016 60.72 207.136 57.2533 207.136 53.36H210.096C210.096 56.7733 210.843 59.76 212.336 62.32C213.883 64.88 216.096 66.88 218.976 68.32C221.856 69.7067 225.27 70.4 229.216 70.4C234.123 70.4 238.176 69.2267 241.376 66.88C244.63 64.5333 246.256 61.3333 246.256 57.28C246.256 54.5067 245.563 52.3733 244.176 50.88C242.79 49.3867 241.03 48.32 238.896 47.68C236.816 46.9867 233.67 46.2133 229.456 45.36ZM268.275 16.32H307.475V19.28H271.235V41.84H302.755V44.8H271.235V69.04H307.475V72H268.275V16.32ZM329.494 72V16.32H332.454V69.04H371.254V72H329.494Z" fill="#E6E6E6"/>
</g>
<defs>
<filter id="filter0_d_104_3" x="22.36" y="14.04" width="350.894" height="62.16" filterUnits="userSpaceOnUse" color-interpolation-filters="sRGB">
<feFlood flood-opacity="0" result="BackgroundImageFix"/>
<feColorMatrix in="SourceAlpha" type="matrix" values="0 0 0 0 0 0 0 0 0 0 0 0 0 0 0 0 0 0 127 0" result="hardAlpha"/>
<feOffset dy="1"/>
<feGaussianBlur stdDeviation="1"/>
<feComposite in2="hardAlpha" operator="out"/>
<feColorMatrix type="matrix" values="0 0 0 0 0 0 0 0 0 0 0 0 0 0 0 0 0 0 0.25 0"/>
<feBlend mode="normal" in2="BackgroundImageFix" result="effect1_dropShadow_104_3"/>
<feBlend mode="normal" in="SourceGraphic" in2="effect1_dropShadow_104_3" result="shape"/>
</filter>
</defs>
</svg>
